<mxfile host="app.diagrams.net" modified="2022-04-10T17:31:53.515Z" agent="5.0 (Macintosh; Intel Mac OS X 10_15_7) AppleWebKit/605.1.15 (KHTML, like Gecko) Version/15.4 Safari/605.1.15" etag="OpPOVv2YOAwtmQIL5Xqi" version="17.4.1" type="github">
  <diagram id="wpo0BYYLYNsAASZYDaur" name="Page-1">
    <mxGraphModel dx="1420" dy="802" grid="1" gridSize="10" guides="1" tooltips="1" connect="1" arrows="1" fold="1" page="1" pageScale="1" pageWidth="850" pageHeight="1100" math="0" shadow="0">
      <root>
        <mxCell id="0" />
        <mxCell id="1" parent="0" />
        <mxCell id="LVrYxlK2DVieBuV3T9fE-1" value="&lt;span style=&quot;white-space: pre&quot;&gt;	Keywords&lt;br/&gt;1. Button&lt;br/&gt;2. View&lt;br/&gt;3. &lt;br/&gt;&lt;/span&gt;" style="rounded=0;whiteSpace=wrap;html=1;align=left;spacingLeft=10;" vertex="1" parent="1">
          <mxGeometry x="200" y="160" width="280" height="200" as="geometry" />
        </mxCell>
      </root>
    </mxGraphModel>
  </diagram>
</mxfile>
